PathFileType	3	(X/Y/Z)	F:\ViconData\AntennenMessung\Messung1\Session1\ID18.trc
DataRate	CameraRate	NumFrames	NumMarkers	Units	OrigDataRate	OrigDataStartFrame	OrigNumFrames
120.0	120.0	5	70	mm	120.0	383	1020	
Frame#	Time	Ashort			Along			Atop			A4			Bshort			Blong			Btop			B4			Cshort			Clong			Ctop			C4			Dshort			Dlong			Dtop			D4			Eshort			Elong			Etop			E4			Fshort			Flong			Ftop			F4			Gshort			Glong			Gtop			G4			Hshort			Hlong			Htop			H4			I1			I2			I3			I4			I5			WandAshort			WandAlong			WandAtop			WandA4			WandA15			WandBshort			WandB4			WandB5			WandBtop			WandBlong			WandCshort			WandClong			WandCtop			WandC4			WandC5			Acenter			Aantenna			Bcenter			Bantenna			Ccenter			Cantenna			Dcenter			Dantenna			Ecenter			Eantenna			Fcenter			Fantenna			Gcenter			Gantenna			Hcenter			Hantenna			Icenter			Iantenna			
		X1	Y1	Z1	X2	Y2	Z2	X3	Y3	Z3	X4	Y4	Z4	X5	Y5	Z5	X6	Y6	Z6	X7	Y7	Z7	X8	Y8	Z8	X9	Y9	Z9	X10	Y10	Z10	X11	Y11	Z11	X12	Y12	Z12	X13	Y13	Z13	X14	Y14	Z14	X15	Y15	Z15	X16	Y16	Z16	X17	Y17	Z17	X18	Y18	Z18	X19	Y19	Z19	X20	Y20	Z20	X21	Y21	Z21	X22	Y22	Z22	X23	Y23	Z23	X24	Y24	Z24	X25	Y25	Z25	X26	Y26	Z26	X27	Y27	Z27	X28	Y28	Z28	X29	Y29	Z29	X30	Y30	Z30	X31	Y31	Z31	X32	Y32	Z32	X33	Y33	Z33	X34	Y34	Z34	X35	Y35	Z35	X36	Y36	Z36	X37	Y37	Z37	X38	Y38	Z38	X39	Y39	Z39	X40	Y40	Z40	X41	Y41	Z41	X42	Y42	Z42	X43	Y43	Z43	X44	Y44	Z44	X45	Y45	Z45	X46	Y46	Z46	X47	Y47	Z47	X48	Y48	Z48	X49	Y49	Z49	X50	Y50	Z50	X51	Y51	Z51	X52	Y52	Z52	X53	Y53	Z53	X54	Y54	Z54	X55	Y55	Z55	X56	Y56	Z56	X57	Y57	Z57	X58	Y58	Z58	X59	Y59	Z59	X60	Y60	Z60	X61	Y61	Z61	X62	Y62	Z62	X63	Y63	Z63	X64	Y64	Z64	X65	Y65	Z65	X66	Y66	Z66	X67	Y67	Z67	X68	Y68	Z68	X69	Y69	Z69	X70	Y70	Z70	
383	3.1833333	-1038.2313	214.56966	-1644.2778	-1109.3746	204.10829	-1599.3348	-1063.8218	173.17543	-1625.6617	-1054.2468	262.23648	-1634.978	-1352.9729	234.90637	1003.6992	-1281.4355	227.13408	1052.5286	-1322.9069	193.72897	1021.0095	-1284.7592	287.88306	1052.8529	813.94727	187.73141	1209.5519	892.23724	178.45752	1179.2766	844.35901	145.5757	1198.3046	860.63434	292.63235	1167.7201	1115.6766	209.56361	-1401.6156	1056.1913	194.05687	-1460.3175	1095.1095	162.36118	-1423.9806	1069.7946	238.67302	-1425.8354	-1204.512	1685.9341	-1563.2188	-1129.161	1688.2961	-1606.0574	-1173.207	1724.4269	-1581.9482	-1134.0814	1580.9423	-1603.8705	-1239.6504	1699.1903	1119.4954	-1309.0095	1698.2347	1071.7261	-1270.4252	1736.3109	1096.8757	-1245.5308	1592.8395	1110.7358	988.89386	1664.25	1162.2607	957.52899	1700.353	1183.845	922.72174	1661.9899	1215.1268	939.78918	1659.4517	1159.9213	998.97876	1668.4376	-1579.4569	1058.6815	1669.9493	-1518.6622	1024.9189	1708.0054	-1551.1288	1059.2002	1672.1355	-1585.4823	-261.36389	164.32216	-221.56668	-346.76468	172.93947	-224.69815	-303.24719	129.1552	-221.88144	-299.70105	169.49883	-191.77928	-297.83734	166.38	-270.12915																																														-1068.806	210.07375	-1624.9628	-1074.026	248.71591	-1624.2311	-1321.603	231.49814	1025.1112	-1320.2655	270.24734	1029.3196	848.11328	183.68423	1196.3396	851.93195	222.44534	1194.3411	1088.7677	202.54892	-1428.17	1082.7205	240.86957	-1432.1652	-1171.9188	1686.9557	-1581.7487	-1170.5789	1647.9792	-1581.5408	-1270.7396	1698.762	1098.0834	-1271.0662	1659.7834	1099.337	953.17816	1705.361	1186.8389	972.95056	1733.5177	1168.4744	1026.3588	1669.1309	-1551.576	1027.8022	1630.16	-1552.0245	-299.27325	168.14735	-222.95673	-295.3205	206.93178	-224.02631
384	3.1916667	-1038.2604	214.52274	-1644.2418	-1109.3959	204.0242	-1599.2812	-1063.7269	173.18065	-1625.6874	-1054.2158	262.22461	-1634.9648	-1353.0696	234.85283	1003.8163	-1281.382	227.01413	1052.5282	-1322.9344	193.77611	1020.9949	-1284.7422	287.8334	1052.8285	813.88727	187.76846	1209.4523	892.21454	178.48694	1179.2527	844.54865	145.41414	1198.3025	860.716	292.6257	1167.9122	1115.6832	209.55113	-1401.6165	1056.1332	193.94153	-1460.283	1095.1586	162.42847	-1423.9738	1069.8141	238.67917	-1425.7914	-1204.5151	1685.921	-1563.2075	-1129.1666	1688.2917	-1606.0461	-1173.1902	1724.4249	-1581.958	-1134.0776	1580.9554	-1603.8627	-1239.6779	1699.2219	1119.5153	-1309.0492	1698.2614	1071.7437	-1270.4277	1736.3119	1096.8865	-1245.5431	1592.7147	1110.6689	988.88501	1664.2444	1162.2596	957.56799	1700.3661	1183.8591	922.73596	1662.1666	1215.1222	939.78015	1659.4208	1159.9438	998.97638	1668.4591	-1579.4819	1058.676	1669.9397	-1518.6609	1024.9264	1708.0269	-1551.1354	1059.2003	1672.1439	-1585.4829	-261.36139	164.3381	-221.61186	-346.7594	172.9314	-224.69884	-303.30225	129.06488	-221.75603	-299.61932	169.50209	-191.70808	-297.89417	166.33211	-270.22214																																														-1068.7229	210.02689	-1624.988	-1073.962	248.66643	-1624.2549	-1321.652	231.41747	1025.1646	-1320.3319	270.15814	1029.4562	848.27203	183.69397	1196.1949	852.04205	222.45262	1194.061	1088.7604	202.49399	-1428.1395	1082.6425	240.80461	-1432.1229	-1171.8947	1686.9474	-1581.7534	-1170.5474	1647.9713	-1581.5405	-1270.7542	1698.7916	1098.115	-1271.0933	1659.814	1099.3912	953.17242	1705.4359	1186.8906	972.96814	1733.5781	1168.5289	1026.3541	1669.1381	-1551.59	1027.7847	1630.1669	-1552.0454	-299.32404	168.15814	-222.98413	-295.37766	206.93883	-224.20242
385	3.2	-1038.2498	214.47366	-1644.2054	-1109.3726	204.03	-1599.3252	-1063.7338	173.16843	-1625.709	-1054.2317	262.23114	-1634.9877	-1353.0317	234.81967	1003.7363	-1281.3434	227.07982	1052.5372	-1322.894	193.76227	1020.9974	-1284.7601	287.87906	1052.8031	813.92181	187.6523	1209.5078	892.21234	178.46251	1179.2977	844.32404	145.60948	1198.2869	860.61078	293.34094	1166.9434	1115.6785	209.56456	-1401.6302	1056.1561	193.96791	-1460.29	1095.0841	162.35695	-1423.9742	1069.803	238.66663	-1425.8053	-1204.506	1685.9298	-1563.2229	-1129.1752	1688.2772	-1606.0209	-1173.1892	1724.4323	-1581.9615	-1134.0765	1580.9563	-1603.8717	-1239.6379	1699.1599	1119.485	-1309.0551	1698.2726	1071.7509	-1270.4189	1736.2814	1096.8793	-1245.4164	1592.6084	1110.6648	988.92273	1664.2653	1162.2587	957.57275	1700.2944	1183.8734	922.78418	1662.0166	1215.0834	939.74774	1659.377	1159.9337	998.98651	1668.4249	-1579.4167	1058.6454	1669.926	-1518.668	1024.9034	1708.0188	-1551.1366	1059.1879	1672.1342	-1585.4724	-261.34595	164.34204	-221.7097	-346.75351	172.94527	-224.71423	-303.2865	129.07082	-221.78439	-299.65118	169.45697	-191.71497	-297.82184	166.33342	-270.13861																																														-1068.6924	210.00345	-1624.9952	-1073.8944	248.64771	-1624.2466	-1321.6292	231.42928	1025.1132	-1320.3279	270.17694	1029.347	848.03888	183.6476	1196.3429	851.82471	222.41283	1194.3618	1088.7238	202.50162	-1428.1943	1082.6537	240.81522	-1432.2219	-1171.8994	1686.9458	-1581.7477	-1170.5586	1647.9695	-1581.5254	-1270.7654	1698.762	1098.0804	-1271.1254	1659.7834	1099.3284	953.16827	1705.3562	1186.9102	972.93097	1733.5457	1168.5856	1026.3286	1669.1129	-1551.575	1027.7563	1630.1415	-1552.014	-299.30405	168.1656	-223.04501	-295.35376	206.94489	-224.29544
386	3.2083333	-1038.1997	214.40466	-1644.2837	-1109.3784	204.07513	-1599.3472	-1063.7349	173.23169	-1625.6826	-1054.2113	262.21515	-1634.9717	-1352.9697	234.88072	1003.744	-1281.3534	227.04143	1052.4701	-1322.8805	193.73592	1021.0375	-1284.7295	287.87119	1052.7668	813.87384	187.72757	1209.5011	892.1311	178.38226	1179.3796	844.36951	145.52917	1198.269	860.59442	292.74533	1167.4315	1115.707	209.81386	-1401.7638	1056.1315	193.96826	-1460.3092	1095.0914	162.37323	-1423.9258	1069.8329	238.67308	-1425.7986	-1204.5134	1685.9261	-1563.2178	-1129.1709	1688.2704	-1606.0269	-1173.1785	1724.433	-1581.9709	-1134.0627	1580.943	-1603.8792	-1239.6259	1699.1484	1119.4746	-1309.241	1698.6028	1071.8517	-1270.4296	1736.3011	1096.8782	-1245.5464	1592.6876	1110.6501	988.93256	1664.2938	1162.2539	957.51849	1700.3741	1183.8793	922.66925	1662.0593	1215.1144	939.76904	1659.4471	1159.8777	998.97687	1668.4282	-1579.4237	1058.7975	1670.1384	-1518.6393	1024.9102	1708.0242	-1551.1205	1059.1935	1672.1329	-1585.4785	-261.3298	164.28955	-221.59407	-346.76071	172.93755	-224.67752	-303.24109	129.18631	-221.88687	-299.64874	169.47083	-191.72128	-297.89496	166.34572	-270.22122																																														-1068.6678	209.98306	-1625.0483	-1073.8555	248.63077	-1624.3816	-1321.5376	231.44008	1025.1296	-1320.1575	270.18808	1029.3352	848.16309	183.63281	1196.303	852.02167	222.38991	1194.3033	1088.6932	202.62888	-1428.3103	1082.6067	240.9245	-1432.4816	-1171.889	1686.9412	-1581.7546	-1170.5487	1647.9648	-1581.5299	-1270.9401	1698.9028	1098.0529	-1271.4719	1659.9257	1099.2771	953.09845	1705.4507	1186.9219	972.86774	1733.641	1168.606	1026.432	1669.213	-1551.5262	1027.9601	1630.2451	-1551.9335	-299.26013	168.12915	-222.96306	-295.2955	206.91229	-224.03488
387	3.2166667	-1038.2153	214.42352	-1644.2844	-1109.377	204.12325	-1599.3191	-1063.743	173.18665	-1625.7039	-1054.2111	262.20529	-1634.9681	-1353.0095	234.81995	1003.7448	-1281.4087	227.08725	1052.5022	-1322.886	193.72188	1021.0425	-1284.7639	287.86823	1052.8894	813.88013	187.73207	1209.5671	892.57172	179.07246	1178.7721	844.56232	145.37114	1198.2914	860.70966	292.66885	1167.6414	1115.6729	209.57738	-1401.6107	1056.212	193.97704	-1460.2737	1095.114	162.39911	-1423.9551	1069.7902	238.64401	-1425.8282	-1204.5068	1685.9304	-1563.2155	-1129.1738	1688.2572	-1606.0012	-1173.1935	1724.4348	-1581.9659	-1134.0791	1580.9607	-1603.8826	-1239.6339	1699.1583	1119.4772	-1309.0409	1698.2738	1071.7399	-1270.407	1736.2706	1096.8544	-1245.5809	1592.7686	1110.6748	988.91486	1664.2654	1162.238	957.57928	1700.3112	1183.8949	922.73102	1662.0121	1215.14	939.78448	1659.4136	1159.9174	998.95709	1668.4427	-1579.4397	1058.6714	1669.9635	-1518.6465	1024.9098	1708.032	-1551.1248	1059.1963	1672.1366	-1585.4672	-261.36926	164.30797	-221.59206	-346.14886	171.87665	-224.34633	-303.26361	129.11035	-221.75484	-299.70453	169.48279	-191.78627	-297.82199	166.32994	-270.13336																																														-1068.6592	210.01689	-1625.0475	-1073.8186	248.66798	-1624.3588	-1321.5997	231.42776	1025.1335	-1320.2778	270.17792	1029.3379	847.99829	183.97752	1196.2153	851.45068	222.76839	1194.1295	1088.75	202.51381	-1428.1722	1082.672	240.82614	-1432.2001	-1171.903	1686.9374	-1581.733	-1170.5616	1647.9612	-1581.491	-1270.7629	1698.7615	1098.0669	-1271.1329	1659.7836	1099.3271	953.15698	1705.3982	1186.9512	972.92651	1733.5886	1168.6354	1026.3425	1669.1401	-1551.5593	1027.7783	1630.1689	-1551.9946	-299.77991	167.73706	-222.8399	-296.2782	206.56422	-223.93063
